HIERARCHY
ROOT Hips
{
	OFFSET 0.00000 0.00000 0.00000
	CHANNELS 6 Xposition Yposition Zposition Yrotation Zrotation Xrotation 
	JOINT Lumbar
	{
		OFFSET 0 0 0
		CHANNELS 3 Zrotation Xrotation Yrotation
		JOINT Neck
		{
			OFFSET 0.00 0.2701 0.00
			CHANNELS 3 Zrotation Xrotation Yrotation
			End Site
			{
				OFFSET 0.00 0.1379 0.00
			}
		}
		JOINT RightShoulder
		{
			OFFSET 0.0119 0.2289 0.1181
			CHANNELS 3 Zrotation Xrotation Yrotation
			JOINT RightElbow
			{
				OFFSET 0.00 -0.1475 0.00
				CHANNELS 2 Zrotation Yrotation
				JOINT RightWrist
				{
					OFFSET 0.00 -0.1605 0.00
					CHANNELS 2 Zrotation Xrotation
					End Site
					{
						OFFSET 0.0040 -0.1068 0.0006
					}
				}
			}
		}
		JOINT LeftShoulder
		{
			OFFSET 0.0119 0.2289 -0.1181
			CHANNELS 3 Zrotation Xrotation Yrotation
			JOINT LeftElbow
			{
				OFFSET 0.00 -0.1475 0.00
				CHANNELS 2 Zrotation Yrotation
				JOINT LeftWrist
				{
					OFFSET 0.00 -0.1605 0.00
					CHANNELS 2 Zrotation Xrotation
					End Site
					{
						OFFSET 0.0040 -0.1068 -0.0006
					}
				}
			}
		}
	}
	JOINT RightHip
	{
		OFFSET 0.0316 -0.0424 0.0458
		CHANNELS 3 Zrotation Xrotation Yrotation
		JOINT RightKnee
		{
			OFFSET 0.00 -0.2438 0.00
			CHANNELS 1 Zrotation
			JOINT RightAnkle
			{
				OFFSET 0.00 -0.2449 0.00
				CHANNELS 3 Zrotation Xrotation Yrotation
				End Site
				{
					OFFSET 0.1237 -0.0542 0.0051
				}
			}
		}
	}
	JOINT LeftHip
	{
		OFFSET 0.0316 -0.0424 -0.0458
		CHANNELS 3 Zrotation Xrotation Yrotation
		JOINT LeftKnee
		{
			OFFSET 0.00 -0.2438 0.00
			CHANNELS 1 Zrotation
			JOINT LeftAnkle
			{
				OFFSET 0.00 -0.2449 0.00
				CHANNELS 3 Zrotation Xrotation Yrotation
				End Site
				{
					OFFSET 0.1237 -0.0542 -0.0051
				}
			}
		}
	}
}
MOTION
Frames: 11
Frame Time: 0.02
0.00598 -0.00105 -0.00383 -168.00369 -33.30739 -1.44459 41.60218 2.16847 -7.02659 7.70169 0.52318 -0.78947 6.1564 -12.91815 3.3724 32.95525 84.32947 1.46032 -0.40459 27.68448 7.31878 -17.79102 49.54121 -83.15992 1.78013 -0.11147 36.6635 -0.6143 -8.04121 -19.68117 -6.22688 -2.02457 -3.18804 46.58942 4.55002 4.82795 -35.88064 -6.42966 3.6735 3.99563
0.0051 -0.00121 -0.00187 -168.03619 -33.50628 -1.52803 41.93288 2.18954 -7.16429 7.24668 0.65167 -0.79213 4.2849 -12.91347 1.83329 32.13655 84.40471 1.47583 -0.33778 24.3959 7.6193 -17.12924 49.22008 -84.04546 2.16943 -0.25941 36.74083 -0.72461 -7.95483 -19.66001 -6.21911 -2.02619 -3.18928 46.20785 4.88134 5.19717 -35.1955 -6.41797 3.50146 3.91342
0.00423 -0.00137 9e-05 -168.06864 -33.70522 -1.61112 42.26337 2.21038 -7.30203 6.79197 0.77966 -0.79478 2.41627 -12.90832 0.29745 31.32163 84.48099 1.49172 -0.27069 21.11257 7.91925 -16.46791 48.8992 -84.9321 2.56005 -0.40714 36.81844 -0.83509 -7.86947 -19.63872 -6.21137 -2.02776 -3.19049 45.82757 5.21125 5.56614 -34.51166 -6.40633 3.32989 3.83143
0.00335 -0.00152 0.00204 -168.10103 -33.90362 -1.69429 42.59321 2.23135 -7.43941 6.33817 0.90773 -0.79744 0.55004 -12.90361 -1.23709 30.5057 84.55593 1.50717 -0.20404 17.83333 8.21899 -15.80811 48.57891 -85.81535 2.94851 -0.55463 36.89562 -0.94516 -7.78352 -19.61759 -6.20362 -2.02937 -3.19171 45.4472 5.54149 5.93441 -33.82848 -6.39468 3.15837 3.74946
0.00247 -0.00168 0.00399 -168.13348 -34.10168 -1.77786 42.92288 2.25263 -7.57652 5.88452 1.03633 -0.8001 -1.31787 -12.89946 -2.77451 29.68541 84.6301 1.52229 -0.13777 14.55066 8.51894 -15.14791 48.25872 -86.6966 3.33486 -0.70235 36.97229 -1.05484 -7.69617 -19.59669 -6.19584 -2.03105 -3.19297 45.06547 5.87329 6.30246 -33.14435 -6.38299 2.98643 3.66729
0.0016 -0.00184 0.00595 -168.16594 -34.30241 -1.85995 43.25504 2.27256 -7.71555 5.42767 1.16305 -0.80275 -3.18782 -12.89218 -4.30702 28.88173 84.71123 1.53992 -0.0689 11.26616 8.81873 -14.48396 47.93647 -87.59477 3.73449 -0.85017 37.05186 -1.16698 -7.61494 -19.57459 -6.18818 -2.0324 -3.19408 44.68825 6.1992 6.67328 -32.4612 -6.37145 2.81565 3.58568
0.00072 -0.002 0.0079 -168.19828 -34.49767 -1.94487 43.58199 2.29514 -7.85069 4.97763 1.29337 -0.80541 -5.05182 -12.89143 -5.84721 28.04589 84.77632 1.5519 -0.00556 7.98909 9.11913 -13.82973 47.61849 -88.45657 4.10661 -0.99732 37.12558 -1.27413 -7.52174 -19.55489 -6.18028 -2.03439 -3.19548 44.30243 6.53657 7.03843 -31.77671 -6.35963 2.64269 3.50304
-0.00016 -0.00215 0.00986 -168.23084 -34.69777 -2.02731 43.91346 2.31535 -7.98919 4.52154 1.42044 -0.80806 -6.92093 -12.88425 -7.38127 27.23906 84.85976 1.57015 0.06327 4.70492 9.41784 -13.16392 47.29702 -89.35436 4.50474 -1.14563 37.20454 -1.38574 -7.43911 -19.53303 -6.17261 -2.03582 -3.19663 43.92446 6.86344 7.40823 -31.09368 -6.34805 2.47178 3.42136
-0.00103 -0.0023 0.01183 -168.26327 -34.90478 -2.10622 44.25187 2.33233 -8.13284 4.05675 1.54332 -0.81071 -8.79907 -12.87072 -8.90498 26.47015 84.95175 1.59196 0.13738 1.41078 9.71914 -12.49376 46.96923 -90.28745 4.93272 -1.2933 37.29068 -1.50351 -7.37138 -19.50829 -6.16517 -2.03644 -3.19742 43.55626 7.1773 7.78633 -30.41112 -6.3368 2.30314 3.34075
-0.00194 -0.00249 0.01374 -168.29523 -35.07504 -2.20394 44.5546 2.36691 -8.25002 3.63805 1.68967 -0.81339 -10.63376 -12.89827 -10.4797 25.49043 84.95286 1.58096 0.17684 -1.83003 10.01955 -11.87805 46.67158 -90.99138 5.18317 -1.43849 37.33786 -1.58797 -7.22388 -19.4994 -6.15625 -2.04137 -3.2001 43.13234 7.56548 8.12457 -29.72187 -6.32377 2.12076 3.25365
-0.00275 -0.00259 0.01576 -168.32899 -35.32083 -2.26294 44.92979 2.365 -8.42096 3.12482 1.7869 -0.816 -12.55421 -12.83629 -11.95197 24.9507 85.17217 1.64702 0.29207 -5.17999 10.31282 -11.12887 46.31443 -92.19496 5.81159 -1.59283 37.46567 -1.74128 -7.24079 -19.45754 -6.15057 -2.03742 -3.19889 42.82569 7.7972 8.54176 -29.04941 -6.31444 1.9678 3.18048
